HIERARCHY
ROOT Hips
{
	OFFSET 0.00000 0.00000 0.00000
	CHANNELS 6 Xposition Yposition Zposition Zrotation Yrotation Xrotation 
	JOINT LHipJoint
	{
		OFFSET 0 0 0
		CHANNELS 3 Zrotation Yrotation Xrotation
		JOINT LeftHip
		{
			OFFSET 1.54859 -1.61379 0.86856
			CHANNELS 3 Zrotation Yrotation Xrotation
			JOINT LeftKnee
			{
				OFFSET 2.25087 -6.18423 0.00000
				CHANNELS 3 Zrotation Yrotation Xrotation
				JOINT LeftAnkle
				{
					OFFSET 2.40328 -6.60297 0.00000
					CHANNELS 3 Zrotation Yrotation Xrotation
					JOINT LeftToe
					{
						OFFSET 0.17435 -0.47901 2.02453
						CHANNELS 3 Zrotation Yrotation Xrotation
						End Site
						{
							OFFSET 0.00000 -0.00000 1.04844
						}
					}
				}
			}
		}
	}
	JOINT RHipJoint
	{
		OFFSET 0 0 0
		CHANNELS 3 Zrotation Yrotation Xrotation
		JOINT RightHip
		{
			OFFSET -1.54669 -1.61379 0.86856
			CHANNELS 3 Zrotation Yrotation Xrotation
			JOINT RightKnee
			{
				OFFSET -2.28132 -6.26789 0.00000
				CHANNELS 3 Zrotation Yrotation Xrotation
				JOINT RightAnkle
				{
					OFFSET -2.51636 -6.91365 0.00000
					CHANNELS 3 Zrotation Yrotation Xrotation
					JOINT RightToe
					{
						OFFSET -0.15124 -0.41552 2.21090
						CHANNELS 3 Zrotation Yrotation Xrotation
						End Site
						{
							OFFSET -0.00000 -0.00000 1.13399
						}
					}
				}
			}
		}
	}
	JOINT lowerback
	{
		OFFSET 0 0 0
		CHANNELS 3 Zrotation Yrotation Xrotation
		JOINT Chest
		{
			OFFSET -0.04287 2.26161 -0.25690
			CHANNELS 3 Zrotation Yrotation Xrotation
			JOINT Chest2
			{
				OFFSET 0.02248 2.28395 -0.10140
				CHANNELS 3 Zrotation Yrotation Xrotation
				JOINT lowerneck
				{
					OFFSET 0 0 0
					CHANNELS 3 Zrotation Yrotation Xrotation
					JOINT Neck
					{
						OFFSET -0.11644 1.38496 0.11345
						CHANNELS 3 Zrotation Yrotation Xrotation
						JOINT Head
						{
							OFFSET 0.29383 1.36600 0.06642
							CHANNELS 3 Zrotation Yrotation Xrotation
							End Site
							{
								OFFSET 0.11075 1.41395 -0.00294
							}
						}
					}
				}
				JOINT LeftCollar
				{
					OFFSET 0 0 0
					CHANNELS 3 Zrotation Yrotation Xrotation
					JOINT LeftShoulder
					{
						OFFSET 3.51628 0.59542 -0.30346
CHANNELS 3 Zrotation Xrotation Yrotation
						JOINT LeftElbow
						{
OFFSET 0 -4.764050 0.000000
CHANNELS 3 Zrotation Xrotation Yrotation
							JOINT LeftWrist
							{
OFFSET 0 -3.137590 -0.000000
CHANNELS 3 Zrotation Xrotation Yrotation
								JOINT lhand
								{
									OFFSET 0 0 0
CHANNELS 3 Zrotation Xrotation Yrotation
									JOINT LFingers
									{
OFFSET 0 -0.732260 -0.000000
CHANNELS 3 Zrotation Xrotation Yrotation
										End Site
										{
OFFSET 0 -0.590370 -0.000000
										}
									}
								}
								JOINT LThumb
								{
OFFSET 0 0.000000 0.000000
CHANNELS 3 Zrotation Xrotation Yrotation
									End Site
									{
OFFSET 0 -0.599380 0.599380
									}
								}
							}
						}
					}
				}
				JOINT RightCollar
				{
					OFFSET 0 0 0
					CHANNELS 3 Zrotation Yrotation Xrotation
					JOINT RightShoulder
					{
						OFFSET -3.30990 0.84213 -0.36430
CHANNELS 3 Zrotation Xrotation Yrotation
						JOINT RightElbow
						{
OFFSET 0 -5.101610 -0.000000
CHANNELS 3 Zrotation Xrotation Yrotation
							JOINT RightWrist
							{
OFFSET 0 -3.232670 -0.000000
CHANNELS 3 Zrotation Xrotation Yrotation
								JOINT rhand
								{
									OFFSET 0 0 0
CHANNELS 3 Zrotation Xrotation Yrotation
									JOINT RFingers
									{
OFFSET 0 -0.702000 -0.000000
CHANNELS 3 Zrotation Xrotation Yrotation
										End Site
										{
OFFSET 0 -0.565970 -0.000000
										}
									}
								}
								JOINT RThumb
								{
OFFSET 0 0.000000 0.000000
CHANNELS 3 Zrotation Xrotation Yrotation
									End Site
									{
OFFSET 0 -0.574610 0.574610
									}
								}
							}
						}
					}
				}
			}
		}
	}
}
MOTION
Frames: 4
Frame Time: 0.008333333333333333
-29.325800 14.071100 14.089500 152.312000 74.465800 164.358000 0.000000 0.000000 0.000000 -26.750700 13.772300 28.073300 0.000000 -0.000000 -0.000000 0.586400 -2.242800 -13.871700 1.129800 -6.751000 -18.979700 0.000000 0.000000 0.000000 10.254800 3.685400 -60.428800 -21.194900 -19.965700 93.495600 -1.064500 3.383500 -18.664400 -0.044200 1.356400 -3.730000 -10.304200 -1.539600 10.512200 0.987300 -2.604400 6.083300 7.080100 -1.479100 1.088900 -7.957200 -0.003900 -7.889900 10.446200 1.117900 -5.764400 4.474600 0.821700 -0.495500 0.000000 -0.000000 0.000000 -6.894900 -16.620600 -55.116800 44.537800 -50.540000 21.881300 20.981400 -25.562900 -21.989200 0.000000 0.000000 0.000000 -7.125000 0.000000 0.000000 -8.182100 53.183300 1.655800 0.000000 -0.000000 0.000000 -8.695900 -14.539300 47.486100 -123.757800 -55.222500 -88.766200 -35.177400 -1.379300 -31.830600 0.000000 0.000000 0.000000 7.125000 0.000000 -0.000000 -1.886300 -7.217700 -2.109400
-29.264340 14.065613 14.069341 152.606013 74.511722 164.777070 0.000000 0.000000 0.000000 -26.601354 13.754509 28.116738 0.000000 0.000000 0.000000 0.543309 -2.353358 -13.291298 1.065568 -6.554404 -18.404612 0.000000 0.000000 0.000000 10.513751 3.546047 -60.318588 -21.089165 -19.970841 93.186048 -1.010376 3.067739 -18.204607 -0.108952 1.927098 -5.311434 -10.108441 -1.591847 10.568548 1.162004 -2.661123 6.089452 7.162874 -1.505440 1.072755 -7.982442 0.068766 -7.953093 10.237791 1.205411 -5.671459 4.416462 0.865715 -0.467254 0.000000 0.000000 0.000000 -6.881441 -16.209039 -54.908391 44.014814 -50.269987 21.480223 21.213434 -25.154429 -21.866945 0.000000 0.000000 0.000000 -7.125000 0.000000 0.000000 -7.904347 53.099544 1.584289 0.000000 0.000000 0.000000 -9.044008 -15.137320 47.962413 -122.886735 -55.478534 -88.046820 -35.268896 -0.971811 -31.864853 0.000000 0.000000 0.000000 7.125000 0.000000 0.000000 -1.928409 -7.284907 -2.158585
-29.202880 14.060125 14.049181 152.900027 74.557643 165.196140 0.000000 0.000000 0.000000 -26.452008 13.736718 28.160175 0.000000 0.000000 0.000000 0.500218 -2.463917 -12.710896 1.001335 -6.357808 -17.829524 0.000000 0.000000 0.000000 10.772703 3.406694 -60.208377 -20.983430 -19.975982 92.876497 -0.956252 2.751978 -17.744814 -0.173705 2.497796 -6.892867 -9.912683 -1.644093 10.624895 1.336708 -2.717846 6.095604 7.245649 -1.531780 1.056611 -8.007685 0.141432 -8.016285 10.029383 1.292922 -5.578519 4.358323 0.909731 -0.439008 0.000000 0.000000 0.000000 -6.867982 -15.797478 -54.699983 43.491829 -49.999974 21.079146 21.445467 -24.745959 -21.744689 0.000000 0.000000 0.000000 -7.125000 0.000000 0.000000 -7.626594 53.015787 1.512779 0.000000 0.000000 0.000000 -9.392117 -15.735339 48.438726 -122.015670 -55.734568 -87.327441 -35.360393 -0.564323 -31.899107 0.000000 0.000000 0.000000 7.125000 0.000000 0.000000 -1.970518 -7.352114 -2.207770
-29.141421 14.054638 14.029022 153.194040 74.603565 165.615210 0.000000 0.000000 0.000000 -26.302662 13.718927 28.203613 0.000000 0.000000 0.000000 0.457127 -2.574475 -12.130494 0.937103 -6.161212 -17.254437 0.000000 0.000000 0.000000 11.031654 3.267341 -60.098165 -20.877695 -19.981123 92.566945 -0.902128 2.436217 -17.285021 -0.238457 3.068493 -8.474301 -9.716924 -1.696340 10.681243 1.511412 -2.774570 6.101755 7.328423 -1.558120 1.040466 -8.032927 0.214097 -8.079478 9.820974 1.380433 -5.485578 4.300185 0.953746 -0.410762 0.000000 0.000000 0.000000 -6.854524 -15.385917 -54.491574 42.968843 -49.729961 20.678069 21.677501 -24.337488 -21.622434 0.000000 0.000000 0.000000 -7.125000 0.000000 0.000000 -7.348841 52.932031 1.441268 0.000000 0.000000 0.000000 -9.740225 -16.333359 48.915040 -121.144605 -55.990603 -86.608061 -35.451889 -0.156834 -31.933360 0.000000 0.000000 0.000000 7.125000 0.000000 0.000000 -2.012628 -7.419322 -2.256955
